<svg height="66" viewBox="0 0 252 66" width="256" xmlns="http://www.w3.org/2000/svg"><g fill="#000" fill-rule="evenodd"><path d="m76.144 12.658h18.13v.826h-17.192v12.895h15.91v.827h-15.91v13.557h17.19v.826h-18.13zm23.57 7.099v15.637c0 4.607 1.94 6.254 6.192 6.254h7.555c4.252 0 6.192-1.647 6.192-6.254v-15.637c0-4.606-1.94-6.255-6.192-6.255h-7.555c-4.252 0-6.192 1.649-6.192 6.255m-.908 15.848v-16.06c0-5.282 2.683-6.887 7.1-6.887h7.555c4.417 0 7.1 1.605 7.1 6.888v16.059c0 5.282-2.683 6.888-7.1 6.888h-7.555c-4.417 0-7.1-1.606-7.1-6.888m47.244-22.098h-11.86c-5.545 0-6.825 1.227-6.825 5.84v1.607c0 2.2.512 2.708 3.2 3.258 0 0 9.043 1.735 13.053 2.497 2.431.464 4.137 1.353 4.137 4.4v4.485c0 5.288-2.047 6.98-7.763 6.896-9.044 0-13.992-.085-13.992-.085v-.76h13.992c5.546 0 6.825-1.652 6.825-6.262v-4.063c0-2.116-.64-3.259-3.114-3.724a1186.17 1186.17 0 0 0 -13.224-2.453c-2.517-.466-4.052-.974-4.052-3.978v-2.03c0-5.29 2.047-6.56 7.763-6.475 9.044 0 11.86.085 11.86.085v.761zm30.327 8.863v-1.942c0-3.637-1.075-5.043-5.128-5.043h-10.42v12.152h10.42c4.053 0 5.128-1.53 5.128-5.167zm-15.549 19.22h-3.101v-28.932h14.102c4.796 0 7.567 2.314 7.567 7.191v3.183c0 4.09-1.82 6.2-5.17 6.82l6.162 11.737h-3.308l-5.996-11.324h-10.256v11.324zm28.902-11.656h12.095l-5.032-14.673h-1.987zm12.94 2.686h-13.744l-3.129 8.969h-3.596s9.813-27.774 9.982-28.353c.127-.371.211-.578.888-.578h5.456c.676 0 .76.207.889.578.168.58 9.98 28.353 9.98 28.353h-3.596zm26.668-17.276h-9.754v26.246h-3.153v-26.246h-9.755v-2.686h22.662zm3.626-2.686h19.036v2.727h-15.932v10.045h14.401v2.81h-14.401v10.499h15.932v2.851h-19.036zm-166.492 26.942c-2.715.957-5.431 1.924-8.147 2.89-.109.04-.188.02-.286-.039-3.97-2.792-7.95-5.584-11.92-8.376-.513-.355-1.037-.72-1.55-1.085 0-.01.01-.01.01-.02.048-.01.098-.01.147-.01 5.442-.177 10.893-.345 16.344-.512.09-.01.148.02.208.098 1.738 2.299 3.486 4.588 5.234 6.886.02.04.05.079.079.119-.05.02-.08.039-.119.049m-10.802 2.95h-.09a900.727 900.727 0 0 0 -5.016-.434c-1.808-.158-3.614-.316-5.421-.464-.12-.01-.169-.05-.198-.168-.662-2.595-1.334-5.19-1.995-7.774-.01-.049-.02-.089-.03-.167 4.267 3.009 8.513 5.998 12.76 8.987 0 0 0 .01-.01.02m-11.624.394c.03 0 .059.006.089.01-.03-.004-.059-.01-.089-.01m-4.82-3.009a743.94 743.94 0 0 1 -4.6-2.772c-.09-.049-.159-.06-.248 0-3.11 1.884-6.242 3.759-9.352 5.634.918-3.582 1.836-7.153 2.765-10.725.03-.108 0-.167-.079-.236-1.323-1.204-2.657-2.418-3.99-3.62a1444.76 1444.76 0 0 0 -4.217-3.838l-.03-.03h.01c1.887-.188 3.783-.375 5.679-.553l5.362-.532c.109-.01.158-.04.207-.148 1.235-3.02 2.47-6.048 3.714-9.077 1.235 3.03 2.469 6.058 3.703 9.077.04.108.1.138.208.148l5.362.532c1.896.178 3.783.365 5.679.553l.035.003-.035.027a758.17 758.17 0 0 0 -4.227 3.837c-1.333 1.203-2.656 2.417-3.99 3.62-.079.07-.099.129-.079.237.919 3.552 1.837 7.094 2.745 10.655-1.54-.927-3.08-1.864-4.621-2.792m3.407 3.77a276.26 276.26 0 0 0 -.642 3.087c-.336 1.598-.662 3.196-.998 4.785-.167.828-.335 1.647-.513 2.466-.01 0-.02.01-.03.01-1.64-4.903-3.279-9.806-4.938-14.75.08.05.12.07.158.1.958.572 1.926 1.144 2.884 1.726 1.323.8 2.647 1.598 3.98 2.388.069.049.118.079.099.187m-2.954 12.836-5.096 6.955c-.03.04-.06.07-.089.119-.029-.05-.059-.08-.078-.11l-5.087-6.944c-.069-.089-.079-.168-.039-.286 1.53-4.588 3.061-9.165 4.592-13.753.197-.601.405-1.194.603-1.795.009.01.02.01.03.01.009.04.029.088.038.128 1.719 5.15 3.437 10.3 5.165 15.45.03.088.02.147-.039.226m-11.16-2.496c-.01-.03-.02-.05-.029-.079a831.697 831.697 0 0 0 -1.017-4.913c-.366-1.766-.731-3.542-1.106-5.308-.02-.108 0-.167.099-.226 2.29-1.372 4.582-2.753 6.873-4.134.04-.02.069-.04.138-.07-1.65 4.934-3.289 9.837-4.938 14.74-.01 0-.02 0-.02-.01m-4.572-12.559c-.03.119-.079.158-.187.168-1.817.148-3.624.306-5.432.464-1.67.138-3.338.286-5.017.434h-.088c0-.01-.01-.02-.01-.02 4.246-2.99 8.492-5.978 12.768-8.987-.02.078-.02.118-.039.167-.662 2.585-1.333 5.18-1.995 7.774m-13.095.967c-.098.06-.168.079-.286.04-2.716-.967-5.432-1.934-8.147-2.891-.03-.01-.06-.03-.12-.05.04-.04.06-.078.09-.118 1.738-2.298 3.486-4.587 5.234-6.886.049-.079.108-.108.207-.098 5.442.167 10.893.335 16.344.513.05 0 .09 0 .139.01.01.01.01.01.01.02-.514.364-1.027.73-1.54 1.084-3.98 2.792-7.95 5.584-11.93 8.376m1.155-12.598c1.442-.77 2.883-1.55 4.335-2.328.929-.503 1.857-.997 2.785-1.5.089-.059.138-.02.198.04 1.155 1.045 2.3 2.09 3.446 3.137.83.75 1.66 1.51 2.489 2.269.04.03.079.059.138.118l-15.603-.503c-.01-.01-.01-.02-.01-.03.74-.404 1.481-.799 2.222-1.203m6.814-9.915c-.691-1.49-1.383-2.97-2.074-4.449-.355-.77-.711-1.53-1.077-2.289.01-.01.02-.02.03-.02l12.828 8.898c-.088.01-.137.02-.187.02-1.116.109-2.232.227-3.358.336-1.54.148-3.09.306-4.632.454-.088.01-.147.01-.197-.08-.435-.956-.889-1.913-1.333-2.87m-3.99-9.224c-.03-2.88-.06-5.772-.079-8.652v-.148c.05.02.089.03.118.039 2.756.849 5.511 1.697 8.267 2.536.118.039.167.098.207.207l4.562 13.822c.198.601.395 1.203.593 1.795-.01.01-.02.01-.02.02-.04-.03-.088-.06-.118-.08-4.474-3.117-8.948-6.224-13.431-9.342a.22.22 0 0 1 -.099-.197m10.468-4.687c.03.02.06.03.08.05l3.762 3.344c1.353 1.204 2.716 2.408 4.069 3.61.089.07.108.13.059.248-1.017 2.476-2.024 4.952-3.042 7.428-.02.04-.04.08-.07.149-1.629-4.963-3.258-9.886-4.878-14.818.01 0 .02-.01.02-.01m10.36 7.004c1.362-1.203 2.715-2.407 4.079-3.611l3.762-3.344c.02-.02.05-.03.069-.05.01 0 .02.01.03.01-1.63 4.933-3.25 9.856-4.879 14.819a2.16 2.16 0 0 0 -.07-.149l-3.05-7.428c-.04-.119-.02-.178.059-.247m9.875-8.336c.04-.109.09-.168.207-.207 2.757-.84 5.511-1.688 8.257-2.537.04-.01.07-.02.129-.04v.149c-.03 2.88-.05 5.771-.08 8.652a.208.208 0 0 1 -.107.197c-4.474 3.118-8.948 6.225-13.421 9.343-.04.02-.08.05-.12.079l-.019-.02c.198-.592.395-1.194.593-1.795l4.562-13.822m6.597 10.793c-.691 1.48-1.383 2.959-2.084 4.449l-1.333 2.87c-.04.09-.108.09-.188.08-1.55-.148-3.09-.306-4.64-.454-1.117-.109-2.233-.227-3.349-.335-.049 0-.098-.01-.187-.02l12.828-8.9c.01 0 .01.01.02.021-.356.76-.711 1.519-1.067 2.289m-2.568 10.576c.06-.06.11-.099.208-.04.928.503 1.857.997 2.785 1.5 1.441.779 2.884 1.558 4.325 2.328.741.404 1.481.799 2.232 1.203-.01.01-.01.02-.01.03l-15.613.503c.069-.06.099-.089.138-.118.83-.76 1.66-1.52 2.489-2.27 1.155-1.045 2.3-2.091 3.446-3.136m18.468 13.042c-1.995-2.654-4-5.298-6.005-7.942-.138-.188-.346-.257-.533-.365-2.113-1.154-4.236-2.299-6.35-3.443-1.856-1.006-3.713-2.012-5.57-3.02l-.03-.014.02-.044c.89-1.924 1.778-3.828 2.667-5.742 1.017-2.19 2.024-4.38 3.041-6.56.09-.197.208-.376.208-.613.02-3.314.049-6.629.07-9.944.009-.473.009-.937.009-1.42-.05.01-.089.02-.118.029l-10.539 3.256c-.277.079-.533.177-.721.395l-.088.088c-1.758 1.54-3.516 3.088-5.274 4.637-1.452 1.283-2.924 2.565-4.375 3.858-1.472-1.283-2.923-2.575-4.385-3.858a2030.9 2030.9 0 0 0 -5.274-4.637l-.087-.088c-.198-.218-.455-.316-.731-.395-3.507-1.085-7.023-2.17-10.529-3.256-.039-.01-.069-.02-.118-.029v1.42c.03 3.315.06 6.63.08 9.944 0 .237.117.416.207.613 1.007 2.18 2.024 4.37 3.041 6.56.89 1.914 1.778 3.818 2.656 5.742l.027.056-5.576 3.022c-2.124 1.143-4.247 2.289-6.36 3.443-.188.108-.395.177-.533.365-1.996 2.644-4 5.288-6.005 7.942-.276.365-.562.74-.859 1.134l.118.04c3.467 1.223 6.933 2.446 10.4 3.68.266.088.532.167.819.108.04-.01.079-.01.119-.01 2.34-.197 4.67-.384 7.001-.582 2.123-.178 4.219-.347 6.333-.525l.027.12c.445 2.082.879 4.164 1.314 6.245.484 2.28.967 4.568 1.452 6.847.01.04.02.079.02.119.029.286.167.523.345.75 2.162 2.949 4.315 5.909 6.478 8.868.02.02.04.05.069.099.286-.395.563-.77.84-1.144 1.965-2.664 3.92-5.327 5.885-7.992.139-.187.139-.404.188-.611l1.481-7.044c.435-2.062.86-4.123 1.294-6.176l.014-.075h.008c2.093.178 4.146.341 6.23.519 2.34.198 4.67.385 7.001.582.04 0 .08 0 .118.01.287.059.554-.02.83-.108 3.457-1.234 6.923-2.457 10.39-3.68.029-.01.069-.02.118-.04-.296-.395-.573-.77-.86-1.134"/><path d="m206.577 62.384v-11.514h3.32c.658 0 1.228.065 1.71.195.48.13.879.321 1.194.574.316.252.551.56.706.923.155.364.233.776.233 1.237 0 .304-.054.597-.16.879s-.26.542-.46.781a2.964 2.964 0 0 1 -.739.622c-.29.177-.624.311-1 .403.91.136 1.608.437 2.097.903.49.467.735 1.083.735 1.848 0 .488-.087.927-.261 1.318-.174.39-.427.721-.76.992-.33.272-.739.48-1.223.623a5.79 5.79 0 0 1 -1.648.216zm.832-5.517v4.85h2.896c1.017 0 1.784-.219 2.3-.656.517-.436.776-1.05.776-1.843 0-.363-.07-.69-.208-.98a2.05 2.05 0 0 0 -.6-.74 2.794 2.794 0 0 0 -.963-.469 4.738 4.738 0 0 0 -1.297-.162zm0-.61h2.504c.533 0 .989-.068 1.367-.204s.688-.315.93-.537.42-.475.534-.757a2.3 2.3 0 0 0 .172-.87c0-.776-.247-1.363-.739-1.762s-1.252-.598-2.28-.598h-2.488v4.727zm19.026-5.387v.691h-6.078v4.655h5.058v.675h-5.058v4.8h6.078v.693h-6.919v-11.514zm12.744 0v.708h-4.055v10.806h-.832v-10.806h-4.08v-.708zm12.23 11.514h-.645a.284.284 0 0 1 -.187-.061.405.405 0 0 1 -.114-.16l-1.363-3.343h-5.67l-1.354 3.344a.35.35 0 0 1 -.114.154.304.304 0 0 1 -.196.066h-.637l4.724-11.514h.832zm-7.726-4.183h5.172l-2.357-5.818a4.422 4.422 0 0 1 -.115-.313 12.51 12.51 0 0 1 -.114-.37c-.038.13-.076.253-.114.37a6.092 6.092 0 0 1 -.114.321z" fill-rule="nonzero"/></g></svg>