<svg width="153" height="40" fill="none" xmlns="http://www.w3.org/2000/svg">
    <g clip-path="url(#a)" fill-rule="evenodd" clip-rule="evenodd" fill="#fff">
        <path d="M46.119 11.308h10.98v.5H46.689v7.816h9.637v.5h-9.637v8.217H57.1v.5H46.119V11.309zM60.395 15.61v9.477c0 2.792 1.175 3.79 3.75 3.79h4.576c2.575 0 3.75-.998 3.75-3.79v-9.476c0-2.792-1.175-3.791-3.75-3.791h-4.576c-2.575 0-3.75.999-3.75 3.79zm-.55 9.605v-9.733c0-3.202 1.625-4.174 4.3-4.174h4.576c2.675 0 4.3.972 4.3 4.174v9.733c0 3.202-1.625 4.175-4.3 4.175h-4.576c-2.675 0-4.3-.973-4.3-4.175zM88.46 11.823h-7.184c-3.358 0-4.133.743-4.133 3.538v.975c0 1.333.31 1.64 1.937 1.975 0 0 5.478 1.05 7.907 1.512 1.472.282 2.506.82 2.506 2.667v2.719c0 3.205-1.24 4.23-4.703 4.179-5.477 0-8.474-.051-8.474-.051v-.462h8.474c3.36 0 4.134-1 4.134-3.795V22.62c0-1.283-.387-1.975-1.886-2.257a717.878 717.878 0 0 0-8.01-1.487c-1.524-.282-2.454-.59-2.454-2.41v-1.232c0-3.205 1.24-3.974 4.702-3.923 5.478 0 7.183.051 7.183.051v.462zM106.828 17.194v-1.177c0-2.204-.651-3.056-3.105-3.056h-6.312v7.365h6.312c2.454 0 3.105-.928 3.105-3.132zm-9.417 11.648h-1.879V11.308h8.541c2.905 0 4.583 1.402 4.583 4.358v1.93c0 2.479-1.102 3.756-3.13 4.132l3.732 7.114h-2.004l-3.632-6.863h-6.211v6.863zM114.916 21.778h7.326l-3.048-8.892h-1.204l-3.074 8.892zm7.838 1.628h-8.325l-1.895 5.436h-2.178s5.943-16.833 6.046-17.183c.076-.226.128-.351.538-.351h3.304c.409 0 .461.125.538.35.102.351 6.045 17.184 6.045 17.184h-2.177l-1.896-5.436zM138.906 12.936h-5.908v15.906h-1.91V12.936h-5.908v-1.628h13.726v1.628zM141.102 11.308h11.53v1.653h-9.65v6.087h8.722v1.703h-8.722v6.363h9.65v1.728h-11.53V11.308zM40.261 24c-1.645.58-3.29 1.166-4.934 1.752-.066.024-.114.012-.174-.024-2.404-1.692-4.815-3.384-7.22-5.076a88.69 88.69 0 0 1-.939-.658c0-.006.006-.006.006-.012.03-.006.06-.006.09-.006 3.296-.107 6.598-.21 9.9-.31.053-.007.089.011.125.059 1.052 1.393 2.111 2.78 3.17 4.173.012.024.03.048.048.072-.03.012-.048.024-.072.03zm-6.544 1.788h-.054c-1.01-.09-2.027-.18-3.038-.263-1.095-.096-2.19-.192-3.284-.281-.072-.006-.102-.03-.12-.102-.4-1.573-.807-3.145-1.208-4.712-.006-.03-.012-.054-.018-.101 2.584 1.824 5.156 3.635 7.729 5.447 0 0 0 .006-.007.012zm-7.04.239c.018 0 .036.003.054.005-.018-.002-.036-.005-.054-.005zm-2.919-1.824c-.933-.556-1.86-1.118-2.787-1.68-.054-.03-.096-.036-.15 0-1.884 1.142-3.78 2.278-5.664 3.414.556-2.17 1.112-4.335 1.675-6.5.018-.065 0-.1-.048-.143-.801-.729-1.61-1.465-2.417-2.194a868.87 868.87 0 0 0-2.554-2.326l-.018-.018h.007c1.142-.113 2.29-.227 3.439-.335l3.247-.322c.066-.007.096-.024.126-.09.748-1.83 1.495-3.665 2.25-5.501.747 1.836 1.494 3.671 2.242 5.501.024.066.06.083.126.09l3.248.322c1.148.108 2.29.222 3.44.335l.02.002-.02.016c-.856.772-1.712 1.549-2.561 2.326-.807.73-1.609 1.465-2.416 2.194-.048.042-.06.078-.048.144.556 2.152 1.112 4.299 1.663 6.457-.933-.562-1.867-1.13-2.8-1.692zm2.064 2.284c-.132.622-.263 1.244-.389 1.872-.203.968-.4 1.937-.604 2.9-.102.502-.204.998-.311 1.494-.006 0-.012.007-.018.007-.993-2.972-1.986-5.944-2.99-8.94.047.03.071.043.095.06.58.347 1.166.694 1.747 1.047.801.484 1.602.968 2.41 1.447.042.03.072.048.06.113zm-1.788 7.78c-1.03 1.404-2.058 2.81-3.087 4.214-.018.024-.036.042-.054.072-.018-.03-.036-.048-.047-.066l-3.081-4.209c-.042-.054-.048-.101-.024-.173l2.781-8.335c.12-.365.245-.724.365-1.088.006.006.012.006.018.006.006.024.018.053.024.077 1.04 3.122 2.082 6.242 3.128 9.364.018.053.013.09-.023.137zm-6.76-1.514c-.006-.018-.012-.03-.017-.047-.204-.993-.407-1.986-.617-2.978-.22-1.07-.442-2.147-.67-3.217-.012-.066 0-.101.06-.137 1.388-.831 2.775-1.668 4.163-2.506.024-.012.042-.023.084-.041-.999 2.99-1.992 5.96-2.99 8.933-.007 0-.012 0-.012-.007zm-2.769-7.611c-.018.072-.048.096-.114.102-1.1.09-2.195.185-3.29.28-1.01.084-2.021.174-3.038.264h-.054c0-.006-.006-.012-.006-.012l7.734-5.447c-.012.047-.012.072-.024.101-.4 1.567-.807 3.14-1.208 4.712zm-7.931.586c-.06.036-.102.048-.174.024A1563.47 1563.47 0 0 0 1.466 24c-.018-.006-.036-.018-.072-.03.024-.024.036-.048.054-.072 1.052-1.393 2.111-2.78 3.17-4.173.03-.048.065-.066.125-.06 3.296.102 6.598.204 9.9.311.03 0 .054 0 .083.006.006.006.006.006.006.012-.31.221-.622.443-.933.658l-7.225 5.076zm.7-7.635c.873-.467 1.746-.94 2.625-1.411.563-.305 1.125-.604 1.687-.91.054-.035.084-.011.12.025.7.633 1.393 1.267 2.087 1.901.503.454 1.005.915 1.508 1.375a.684.684 0 0 1 .083.072l-9.45-.305c-.006-.006-.006-.012-.006-.018.448-.245.897-.484 1.346-.73zm4.127-6.01c-.419-.902-.838-1.8-1.256-2.696-.216-.466-.431-.927-.653-1.387.007-.006.013-.012.018-.012l7.77 5.393c-.053.006-.083.012-.114.012-.675.066-1.351.138-2.033.203-.933.09-1.872.186-2.805.275-.054.006-.09.006-.12-.048-.263-.58-.538-1.16-.807-1.74zm-2.417-5.59a1490.61 1490.61 0 0 1-.048-5.244v-.09c.03.013.054.019.072.025 1.669.514 3.338 1.028 5.007 1.537.071.023.101.06.125.125l2.764 8.377.358 1.088c-.005.006-.012.006-.012.012-.023-.018-.053-.036-.071-.048-2.71-1.89-5.42-3.773-8.135-5.662a.133.133 0 0 1-.06-.12zm6.34-2.84c.018.012.036.018.049.03L17.65 5.71c.82.73 1.645 1.459 2.465 2.188.054.042.066.078.036.15-.617 1.5-1.227 3.001-1.843 4.502-.012.024-.024.048-.042.09-.987-3.008-1.973-5.991-2.955-8.98.007 0 .013-.007.013-.007zM21.6 7.898c.825-.729 1.645-1.459 2.47-2.188l2.28-2.027c.011-.012.03-.018.041-.03.006 0 .012.006.018.006-.987 2.99-1.968 5.973-2.955 8.98a1.327 1.327 0 0 0-.042-.09l-1.848-4.501c-.024-.072-.012-.108.036-.15zm5.981-5.052c.025-.066.054-.102.126-.125 1.669-.509 3.338-1.023 5-1.537.024-.006.042-.012.078-.024v.09c-.017 1.745-.03 3.497-.048 5.243 0 .054-.017.09-.065.12-2.71 1.89-5.42 3.773-8.129 5.662-.024.012-.048.03-.072.048l-.012-.012c.12-.36.24-.723.359-1.088l2.763-8.377zm3.996 6.541c-.419.897-.838 1.794-1.262 2.697l-.808 1.74c-.024.053-.065.053-.113.047-.94-.09-1.872-.185-2.811-.275-.676-.065-1.352-.137-2.028-.203-.03 0-.06-.006-.114-.012l7.77-5.393c.006 0 .006.006.012.012-.215.46-.43.92-.646 1.387zm-1.555 6.41c.036-.036.066-.06.125-.024.563.305 1.125.604 1.687.909.873.472 1.747.944 2.62 1.41.449.246.897.485 1.352.73-.006.006-.006.012-.006.018l-9.457.305c.042-.036.06-.054.084-.072.503-.46 1.005-.92 1.507-1.375.7-.634 1.394-1.268 2.088-1.901zM41.206 23.7c-1.208-1.608-2.422-3.21-3.637-4.813-.084-.114-.21-.156-.322-.222-1.28-.699-2.566-1.392-3.847-2.086l-3.373-1.83-.019-.01.013-.025c.538-1.166 1.077-2.32 1.615-3.48.616-1.328 1.226-2.655 1.842-3.976.054-.12.126-.228.126-.371.012-2.01.03-4.018.042-6.027.005-.287.005-.568.005-.861a.63.63 0 0 0-.071.018L27.198 1.99c-.168.048-.323.107-.437.24l-.054.053c-1.064.933-2.13 1.871-3.194 2.81-.88.777-1.77 1.555-2.65 2.338-.891-.778-1.77-1.56-2.656-2.338-1.064-.939-2.129-1.877-3.194-2.81l-.053-.054c-.12-.132-.276-.191-.443-.24C12.394 1.334 10.264.677 8.141.019 8.117.012 8.099.006 8.069 0v.86c.018 2.01.036 4.019.048 6.028 0 .143.071.251.125.37.61 1.322 1.227 2.649 1.843 3.977.538 1.16 1.076 2.314 1.608 3.48l.016.033-3.377 1.832c-1.286.694-2.572 1.387-3.852 2.087-.114.065-.24.107-.323.22C2.95 20.49 1.735 22.094.52 23.702c-.167.221-.34.448-.52.688l.072.024c2.1.741 4.199 1.482 6.298 2.23.162.053.323.101.497.066.024-.006.047-.006.072-.006 1.417-.12 2.829-.234 4.24-.353 1.286-.108 2.555-.21 3.836-.318l.016.073c.27 1.261.532 2.523.796 3.784.293 1.381.586 2.769.88 4.15.005.024.011.048.011.072.018.173.102.317.21.454 1.31 1.788 2.613 3.582 3.923 5.375.012.012.024.03.042.06.173-.24.341-.466.508-.694 1.19-1.614 2.375-3.228 3.565-4.843.084-.113.084-.245.114-.37l.897-4.27c.263-1.249.52-2.498.784-3.742l.008-.046h.005c1.268.108 2.511.207 3.773.315 1.418.12 2.83.233 4.241.352a.28.28 0 0 1 .072.007c.173.035.335-.013.502-.066 2.094-.748 4.193-1.489 6.293-2.23l.072-.024c-.18-.24-.347-.467-.52-.688z"/>
    </g>
    <defs>
        <clipPath id="a">
            <path fill="#fff" d="M0 0h152.632v40H0z"/>
        </clipPath>
    </defs>
</svg>
