<svg width="153" height="40" fill="none" xmlns="http://www.w3.org/2000/svg">
    <path d="M125.016 37.506h-.511V32.95h-1.682v-.468h3.875v.468h-1.682v4.556zM127.986 37.038h2.689v.468h-3.2v-5.024h3.115v.468h-2.604v1.71h2.434v.469h-2.434v1.909zM134.066 33.313c-.223-.326-.547-.49-.973-.49a1.46 1.46 0 0 0-.39.054 1.08 1.08 0 0 0-.344.164.808.808 0 0 0-.245.283.853.853 0 0 0-.093.408c0 .227.065.404.192.53.128.124.286.227.476.308.189.08.396.152.621.216.225.064.431.15.62.256.19.106.348.246.476.422.128.175.192.414.192.717 0 .227-.049.431-.146.614a1.42 1.42 0 0 1-.383.457 1.795 1.795 0 0 1-.533.284c-.196.066-.393.1-.592.1-.308 0-.6-.058-.876-.175a1.666 1.666 0 0 1-.706-.57l.461-.334c.109.184.26.332.454.443.194.111.424.167.689.167.127 0 .255-.02.383-.06.127-.04.242-.1.344-.178a.994.994 0 0 0 .252-.287.762.762 0 0 0 .099-.39.804.804 0 0 0-.11-.437.945.945 0 0 0-.291-.29 1.834 1.834 0 0 0-.411-.196 29.781 29.781 0 0 0-.476-.156 5.27 5.27 0 0 1-.475-.177 1.654 1.654 0 0 1-.412-.252 1.15 1.15 0 0 1-.291-.383 1.348 1.348 0 0 1-.11-.58c0-.24.046-.45.139-.63.092-.18.215-.33.368-.448a1.58 1.58 0 0 1 .522-.262c.194-.057.393-.085.596-.085.284 0 .542.045.774.134.231.09.447.249.645.476l-.446.347zM137.246 37.506h-.511V32.95h-1.682v-.468h3.875v.468h-1.682v4.556zM143.338 36.74h.014v-4.258h.511v5.024h-.639l-2.994-4.3h-.014v4.3h-.511v-5.024h.638l2.995 4.258zM145.734 37.038h2.69v.468h-3.201v-5.024h3.116v.468h-2.605v1.71h2.435v.469h-2.435v1.909zM151.042 37.506h-.511V32.95h-1.682v-.468h3.875v.468h-1.682v4.556z" fill="#fff"/>
    <path fill-rule="evenodd" clip-rule="evenodd" d="M46.152 11.307h10.987v.5H46.721v7.816h9.643v.501h-9.643v8.217h10.418v.5H46.152V11.307zM60.433 15.61v9.477c0 2.792 1.176 3.79 3.753 3.79h4.579c2.577 0 3.752-.998 3.752-3.79V15.61c0-2.792-1.175-3.791-3.752-3.791h-4.58c-2.576 0-3.752 1-3.752 3.79zm-.55 9.605v-9.733c0-3.202 1.626-4.175 4.303-4.175h4.579c2.677 0 4.303.973 4.303 4.175v9.733c0 3.2-1.626 4.174-4.303 4.174h-4.58c-2.676 0-4.302-.973-4.302-4.174M88.515 11.822h-7.188c-3.36 0-4.136.744-4.136 3.54v.974c0 1.333.31 1.64 1.94 1.974 0 0 5.48 1.052 7.91 1.514 1.474.28 2.508.82 2.508 2.666v2.718c0 3.205-1.241 4.231-4.705 4.18-5.482 0-8.48-.052-8.48-.052v-.461h8.48c3.36 0 4.136-1 4.136-3.794v-2.462c0-1.283-.388-1.976-1.887-2.257a713.4 713.4 0 0 0-8.015-1.487c-1.525-.282-2.456-.59-2.456-2.41v-1.232c0-3.205 1.241-3.974 4.705-3.923 5.481 0 7.188.051 7.188.051v.461zM106.897 17.193v-1.177c0-2.204-.651-3.056-3.107-3.056h-6.316v7.365h6.316c2.456 0 3.107-.927 3.107-3.132zm-9.423 11.648h-1.88V11.307h8.547c2.907 0 4.586 1.403 4.586 4.358v1.93c0 2.479-1.103 3.757-3.133 4.132l3.734 7.114h-2.005l-3.633-6.863h-6.216v6.863zM114.988 21.778h7.331l-3.05-8.893h-1.204l-3.077 8.893zm7.843 1.627h-8.33l-1.896 5.436h-2.18s5.948-16.833 6.05-17.183c.077-.225.128-.35.538-.35h3.307c.409 0 .461.125.539.35.101.35 6.048 17.183 6.048 17.183h-2.179l-1.897-5.436zM138.991 12.935h-5.912v15.906h-1.911V12.935h-5.912v-1.628h13.735v1.628zM141.187 11.307h11.537v1.653h-9.656v6.087h8.728v1.704h-8.728v6.362h9.656v1.728h-11.537V11.307zM40.286 24c-1.645.58-3.291 1.166-4.938 1.752-.066.024-.114.012-.173-.024-2.406-1.692-4.818-3.384-7.224-5.077-.311-.215-.629-.436-.94-.657 0-.006.006-.006.006-.012.03-.006.06-.006.09-.006 3.298-.107 6.602-.21 9.905-.31.055-.007.09.011.126.059 1.053 1.393 2.113 2.78 3.172 4.173.012.024.03.048.048.072-.03.012-.048.024-.072.03zm-6.547 1.788h-.055c-1.01-.09-2.028-.18-3.04-.263-1.095-.096-2.19-.192-3.285-.281-.072-.006-.103-.03-.12-.102-.401-1.573-.809-3.145-1.21-4.712-.005-.03-.011-.054-.017-.1 2.586 1.823 5.159 3.634 7.733 5.446 0 0 0 .006-.006.012zm-7.045.239c.018 0 .036.003.054.005-.018-.002-.036-.005-.054-.005zm-2.92-1.824c-.935-.556-1.862-1.118-2.79-1.68-.054-.03-.096-.036-.15 0-1.885 1.142-3.782 2.278-5.667 3.415.556-2.171 1.112-4.336 1.675-6.5.019-.066 0-.102-.047-.143-.802-.73-1.61-1.466-2.419-2.195a815.301 815.301 0 0 0-2.573-2.344h.006c1.143-.114 2.292-.227 3.441-.335l3.25-.322c.066-.006.096-.024.125-.09.749-1.83 1.497-3.665 2.251-5.501.749 1.836 1.497 3.671 2.245 5.501.024.066.06.084.126.09l3.25.322c1.148.108 2.292.221 3.441.335l.021.002-.02.017c-.857.77-1.713 1.547-2.563 2.325-.808.73-1.61 1.465-2.418 2.194-.048.042-.06.078-.048.144.557 2.152 1.114 4.299 1.664 6.457-.933-.562-1.867-1.13-2.8-1.692zm2.064 2.284c-.132.622-.264 1.244-.389 1.872-.204.968-.401 1.937-.605 2.9-.101.502-.203.998-.31 1.494-.007 0-.013.006-.019.006-.993-2.971-1.987-5.943-2.993-8.938.048.03.073.041.096.06.58.346 1.168.693 1.748 1.046.802.484 1.604.968 2.412 1.447.042.03.072.048.06.113zm-1.79 7.78L20.96 38.48c-.018.024-.036.042-.054.072-.017-.03-.036-.047-.047-.066a5244.28 5244.28 0 0 0-3.083-4.209c-.042-.054-.048-.102-.024-.173l2.783-8.335c.12-.364.246-.724.366-1.088.005.005.011.005.017.005.006.024.018.054.024.078 1.042 3.122 2.083 6.242 3.13 9.364.018.053.013.09-.023.137zm-6.762-1.514-.019-.047c-.203-.993-.406-1.986-.616-2.978-.222-1.07-.443-2.147-.67-3.217-.012-.066 0-.101.06-.137 1.387-.832 2.777-1.668 4.165-2.505.024-.013.042-.024.084-.042-1 2.99-1.994 5.96-2.993 8.932-.006 0-.012 0-.012-.006zm-2.772-7.611c-.018.072-.048.096-.113.102-1.102.09-2.197.185-3.293.28-1.011.084-2.023.174-3.04.264h-.053c0-.006-.007-.012-.007-.012l7.739-5.447c-.012.047-.012.072-.024.101-.401 1.567-.808 3.14-1.21 4.712zm-7.936.586c-.06.036-.102.048-.174.024C4.758 25.166 3.112 24.58 1.467 24c-.019-.006-.037-.018-.072-.03.024-.024.035-.048.053-.072 1.054-1.392 2.113-2.78 3.173-4.173.03-.048.065-.066.125-.06 3.298.102 6.602.204 9.905.311.03 0 .055 0 .085.006.005.006.005.006.005.012-.31.221-.622.442-.933.657-2.412 1.693-4.818 3.385-7.23 5.077zm.7-7.635c.874-.467 1.747-.94 2.627-1.411.564-.305 1.126-.604 1.688-.91.054-.035.084-.011.12.025.7.633 1.394 1.267 2.089 1.901.503.455 1.005.915 1.508 1.375a.672.672 0 0 1 .084.072l-9.456-.305c-.006-.006-.006-.012-.006-.018.449-.245.897-.484 1.346-.73zm4.13-6.01c-.419-.902-.838-1.8-1.257-2.696C9.936 8.921 9.72 8.46 9.498 8c.006-.006.013-.012.018-.012l7.775 5.393c-.053.006-.083.012-.113.012-.677.066-1.353.137-2.036.203-.933.09-1.873.186-2.807.275-.053.007-.089.007-.12-.047-.263-.58-.538-1.16-.807-1.74zM8.99 6.494c-.018-1.746-.036-3.498-.048-5.243v-.09c.03.012.054.018.071.024 1.67.514 3.34 1.028 5.01 1.537.072.023.102.059.126.125l2.765 8.377c.12.364.24.73.36 1.088-.007.006-.013.006-.013.012-.023-.018-.053-.036-.071-.048-2.712-1.89-5.423-3.773-8.14-5.662a.133.133 0 0 1-.06-.12zm6.344-2.84c.018.012.036.018.048.03l2.28 2.027c.82.73 1.646 1.46 2.466 2.188.054.042.066.078.036.15-.616 1.5-1.226 3.001-1.843 4.502-.012.024-.025.048-.042.09-.988-3.008-1.975-5.992-2.957-8.98.006 0 .012-.007.012-.007zm6.279 4.245c.825-.729 1.645-1.459 2.472-2.188l2.28-2.027c.012-.012.03-.018.042-.03.006 0 .012.006.018.006-.988 2.99-1.97 5.973-2.957 8.981-.018-.042-.03-.066-.042-.09l-1.85-4.502c-.023-.072-.011-.108.037-.15zm5.985-5.052c.024-.066.053-.102.125-.125 1.67-.509 3.34-1.023 5.004-1.537.024-.006.042-.012.078-.024v.09c-.018 1.745-.03 3.497-.048 5.243 0 .054-.018.09-.066.12-2.711 1.89-5.423 3.772-8.133 5.662-.025.012-.048.03-.073.048l-.012-.012c.12-.359.24-.724.36-1.088.92-2.793 1.843-5.585 2.765-8.377zm3.998 6.541c-.419.897-.838 1.794-1.263 2.697l-.808 1.74c-.024.054-.066.054-.114.047-.94-.09-1.873-.185-2.813-.275-.676-.066-1.352-.137-2.029-.203-.03 0-.06-.006-.113-.012l7.774-5.393c.006 0 .006.006.012.012-.215.46-.43.92-.646 1.387zm-1.557 6.41c.037-.036.066-.06.127-.024.562.305 1.125.604 1.687.909.874.472 1.748.944 2.621 1.41.45.246.898.485 1.353.73-.006.006-.006.012-.006.018l-9.462.305c.042-.036.06-.054.083-.072.503-.46 1.006-.92 1.509-1.375.7-.634 1.395-1.268 2.088-1.901zm11.193 7.904c-1.209-1.608-2.424-3.21-3.64-4.813-.083-.114-.209-.156-.322-.221-1.28-.7-2.568-1.394-3.849-2.087l-3.375-1.83-.02-.009.013-.027c.54-1.165 1.078-2.32 1.617-3.48.616-1.327 1.226-2.654 1.843-3.975.054-.12.126-.228.126-.372.012-2.008.03-4.017.042-6.026.006-.287.006-.568.006-.861a.587.587 0 0 0-.072.018L27.215 1.99c-.168.048-.323.107-.437.24l-.054.053c-1.065.932-2.13 1.871-3.196 2.81-.88.778-1.772 1.554-2.652 2.338-.892-.777-1.771-1.56-2.657-2.338-1.066-.939-2.13-1.878-3.197-2.81a2.215 2.215 0 0 0-.053-.054c-.12-.132-.276-.191-.443-.24C12.401 1.334 10.27.677 8.146.019 8.121.012 8.103.005 8.073 0v.86c.018 2.01.036 4.019.048 6.027 0 .144.071.252.126.372.61 1.321 1.227 2.648 1.843 3.976.539 1.16 1.078 2.314 1.61 3.48l.016.034-3.38 1.831a749.898 749.898 0 0 0-3.854 2.087c-.114.065-.24.107-.323.22-1.21 1.603-2.424 3.206-3.64 4.814-.167.221-.34.448-.52.688l.072.024c2.1.74 4.201 1.482 6.303 2.23.16.053.322.101.496.066.024-.007.048-.007.072-.007 1.418-.119 2.83-.232 4.243-.352 1.287-.108 2.557-.21 3.838-.319l.017.074c.27 1.261.532 2.523.796 3.784.293 1.381.586 2.769.88 4.15.005.024.012.048.012.072.018.173.101.317.21.454 1.31 1.788 2.614 3.582 3.925 5.375.012.012.024.03.042.06.173-.24.341-.466.51-.693 1.19-1.615 2.375-3.229 3.566-4.844.084-.113.084-.245.114-.37.3-1.423.599-2.846.897-4.27.264-1.25.522-2.498.785-3.742l.008-.046h.005c1.268.108 2.513.207 3.776.315 1.418.12 2.83.233 4.243.352.023 0 .048 0 .071.006.174.036.336-.012.503-.065 2.095-.748 4.196-1.49 6.297-2.23.018-.006.042-.012.072-.024-.18-.24-.347-.467-.52-.688" fill="#fff"/>
</svg>
