<?xml version="1.0" encoding="utf-8"?>
<!-- Generator: Adobe Illustrator 22.1.0, SVG Export Plug-In . SVG Version: 6.00 Build 0)  -->
<svg version="1.1" id="Layer_1" xmlns:x="&ns_extend;" xmlns:i="&ns_ai;" xmlns:graph="&ns_graphs;"
	 xmlns="http://www.w3.org/2000/svg" xmlns:xlink="http://www.w3.org/1999/xlink" x="0px" y="0px" viewBox="0 0 171 65"
	 style="enable-background:new 0 0 171 65;" xml:space="preserve">
<style type="text/css">
	.st0{fill:#3EBBD3;}
	.st1{fill:#6EC4E0;}
	.st2{fill:#4F4363;}
	.st3{fill:#5484B3;}
	.st4{fill:#424B71;}
	.st5{fill:#2D2017;}
	.st6{fill:#231F20;}
</style>
<metadata>
	<sfw  xmlns="&ns_sfw;">
		<slices></slices>
		<sliceSourceBounds  bottomLeftOrigin="true" height="57.8" width="162.7" x="3.7" y="-60.8"></sliceSourceBounds>
	</sfw>
</metadata>
<g>
	<g>
		<g>
			<g>
				<g id="XMLID_7_">
					<g>
						<line x1="44.8" y1="28.1" x2="44.4" y2="27.5"/>
						<polyline points="44.4,28.9 44.9,28.2 44.8,28.1 						"/>
						<polyline points="44.9,28.2 44.9,43.7 44.5,44.4 43.9,43.5 43.9,42.7 43.8,42.8 43.8,29.2 44.4,29 44.4,28.9 						"/>
						<polygon points="44.8,28.1 44.9,28.4 44.4,28.9 44.1,28 44,28 44.1,27.9 						"/>
						<polygon points="44.4,27.5 44.8,28.1 44.1,27.9 						"/>
						<polygon points="44.8,43.8 44.7,44 44.3,43.7 44.4,43.6 						"/>
						<polygon points="44.7,44 44.3,44.8 43.9,44 44.3,43.7 						"/>
						<polygon points="44.4,43.6 44.3,43.7 44.1,43.5 44.1,43.5 						"/>
						<polygon points="44.4,28.9 44.4,29 43.8,29.2 43.8,29.1 						"/>
						<polygon points="44.1,28 44.4,28.9 43.8,28.8 43.8,28.3 44,28 						"/>
						<polygon points="35.7,15 44.4,27.5 44.1,27.9 43.8,27.8 43.8,28.1 29.8,32.6 29.9,32.5 29.7,32.3 43.5,28.1 35.3,16.3 
							35.5,16.3 35.5,15.2 34,15.2 18.4,5.9 18.4,5.9 17.7,5.1 17,5.8 5,4.3 7,14.4 6.7,14.7 6.6,15.2 6.6,15.5 6.3,15.9 6.2,15.9 
							6.1,15.6 3.7,3.1 18.8,4.9 						"/>
						<polygon points="44.4,28.9 43.8,29.1 43.8,28.8 						"/>
						<polygon points="44.3,43.2 44.1,43.5 43.8,43.4 43.8,42.8 43.9,42.7 						"/>
						<polygon points="44.3,43.7 43.9,44 43.8,43.7 43.8,43.4 44.1,43.5 44.1,43.5 						"/>
						<polygon points="44.3,44.8 37.1,60.8 21.7,59.5 21.5,58.9 21.6,58.8 22.1,59 22.4,59.4 23.6,58.6 36.5,59.7 43.3,44.4 
							43.9,44 						"/>
						<polygon points="44.1,27.9 44,28 43.8,28.1 43.8,27.8 						"/>
						<polygon points="44,28 43.8,28.3 43.8,28.1 						"/>
						<polygon points="43.8,43.7 43.9,44 43.3,44.4 43.8,43.4 43.8,43.4 						"/>
						<polygon points="43.8,28.1 43.8,28.3 43.5,28.7 43.8,28.8 43.8,29.1 30.7,33.1 29.9,32.9 29.7,33.5 29.2,33.6 29.1,33.6 
							28.6,33.5 29.1,33.2 29.3,33.3 29.8,32.6 						"/>
						<polygon points="43.8,28.3 43.8,28.8 43.5,28.7 						"/>
						<polygon points="43.8,29.1 43.8,29.2 30.8,33.4 30.9,33.2 30.7,33.1 						"/>
						<polygon class="st0" points="30.8,33.4 43.8,29.2 43.8,42.8 23.1,57.6 						"/>
						<polygon points="43.8,42.8 43.8,43.4 43.8,43.4 43.3,44.4 23.6,58.6 22.8,58.5 23.1,57.6 						"/>
						<polygon class="st1" points="35.3,16.3 43.5,28.1 29.7,32.3 8.3,16 						"/>
						<polygon class="st2" points="23.6,58.6 43.3,44.4 36.5,59.7 						"/>
						<polygon points="35.5,15.2 35.5,16.3 35.3,16.3 34.9,15.8 34,15.2 						"/>
						<polygon points="34.9,15.8 35.3,16.3 8.3,16 7.1,15.2 7,14.4 17,5.8 18.4,5.9 18.4,6 8.1,14.9 34,15.2 						"/>
						<polygon class="st3" points="34,15.2 8.1,14.9 18.4,6 18.4,5.9 18.4,5.9 						"/>
						<polygon points="30.9,33.2 30.8,33.4 30.2,33.5 29.4,34.3 29.7,33.5 30.7,33.1 						"/>
						<polygon points="30.8,33.4 23.1,57.6 22.3,58.2 22,57.5 29.4,34.3 30.2,33.5 						"/>
						<polygon points="30.7,33.1 29.7,33.5 29.9,32.9 						"/>
						<polygon points="29.9,32.5 29.8,32.6 29.7,32.6 29.1,33.2 28.1,32.4 29.1,32.5 29.7,32.3 						"/>
						<polygon points="29.8,32.6 29.3,33.3 29.1,33.2 29.7,32.6 						"/>
						<polygon points="29.7,32.3 29.1,32.5 28.1,32.4 7.5,16.7 7.3,16 8.3,16 						"/>
						<polygon points="29.2,33.6 29.7,33.5 29.4,34.3 17,45.6 22,57.5 21.6,58.8 21.5,58.9 15.7,45.3 28.6,33.5 29.1,33.6 						"/>
						<polygon class="st4" points="17,45.6 29.4,34.3 22,57.5 						"/>
						<polygon points="28.1,32.4 29.1,33.2 28.6,33.5 9.5,31.2 6.2,15.9 6.3,15.9 7.5,16.7 10.4,30.2 						"/>
						<polygon class="st5" points="28.1,32.4 10.4,30.2 7.5,16.7 						"/>
						<polygon points="23.6,58.6 22.4,59.4 22.1,59 22.6,59.2 22.8,58.5 						"/>
						<polygon points="22.3,58.2 23.1,57.6 22.8,58.5 22.5,58.5 						"/>
						<polygon points="22.8,58.5 22.6,59.2 22.1,59 21.8,58.6 22.3,58.2 22.5,58.5 						"/>
						<polygon points="22,57.5 22.3,58.2 21.8,58.6 22.1,59 21.6,58.8 						"/>
						<polygon points="17.7,5.1 18.4,5.9 17,5.8 						"/>
						<polygon class="st5" points="17,5.8 7,14.4 5,4.3 						"/>
						<polygon points="8.3,16 7.3,16 7.2,15.4 7.1,15.2 						"/>
						<polygon points="7.5,16.7 6.3,15.9 6.6,15.5 6.7,16 7.3,16 						"/>
						<polygon points="7.2,15.4 7.3,16 6.7,16 6.6,15.5 7,15 7.1,15.2 						"/>
						<polygon points="7,14.4 7.1,15.2 7,15 6.6,15.5 6.6,15.2 6.7,14.7 						"/>
					</g>
				</g>
			</g>
		</g>
		<g>
			<g>
				<g id="XMLID_6_">
					<g>
						<line x1="44" y1="28.1" x2="44.4" y2="27.5"/>
						<polyline points="44.4,28.9 43.9,28.2 44,28.1 						"/>
						<polyline points="43.9,28.2 43.9,43.7 44.3,44.4 44.8,43.5 44.8,42.7 45,42.8 44.9,29.2 44.4,29 44.4,28.9 						"/>
						<polygon points="44,28.1 43.9,28.4 44.4,28.9 44.7,28 44.8,28 44.6,27.9 						"/>
						<polygon points="44.4,27.5 44,28.1 44.6,27.9 						"/>
						<polygon points="44,43.8 44.1,44 44.4,43.7 44.3,43.6 						"/>
						<polygon points="44.1,44 44.5,44.8 44.8,44 44.4,43.7 						"/>
						<polygon points="44.3,43.6 44.4,43.7 44.7,43.5 44.7,43.5 						"/>
						<polygon points="44.4,28.9 44.4,29 44.9,29.2 44.9,29.1 						"/>
						<polygon points="44.7,28 44.4,28.9 44.9,28.8 44.9,28.3 44.8,28 						"/>
						<polygon points="53.1,15 44.4,27.5 44.6,27.9 44.9,27.8 44.9,28.1 58.9,32.6 58.8,32.5 59,32.3 45.3,28.1 53.5,16.3 
							53.3,16.3 53.3,15.2 54.8,15.2 70.3,5.9 70.3,5.9 71,5.1 71.7,5.8 83.7,4.3 81.7,14.4 82.1,14.7 82.1,15.2 82.1,15.5 
							82.4,15.9 82.5,15.9 82.6,15.6 85,3.1 70,4.9 						"/>
						<polygon points="44.4,28.9 44.9,29.1 44.9,28.8 						"/>
						<polygon points="44.4,43.2 44.7,43.5 45,43.4 45,42.8 44.8,42.7 						"/>
						<polygon points="44.4,43.7 44.8,44 45,43.7 45,43.4 44.7,43.5 44.7,43.5 						"/>
						<polygon points="44.5,44.8 51.6,60.8 67,59.5 67.3,58.9 67.2,58.8 66.7,59 66.3,59.4 65.2,58.6 52.3,59.7 45.5,44.4 44.8,44 
													"/>
						<polygon points="44.6,27.9 44.8,28 44.9,28.1 44.9,27.8 						"/>
						<polygon points="44.8,28 44.9,28.3 44.9,28.1 						"/>
						<polygon points="45,43.7 44.8,44 45.5,44.4 45,43.4 45,43.4 						"/>
						<polygon points="44.9,28.1 44.9,28.3 45.2,28.7 44.9,28.8 44.9,29.1 58.1,33.1 58.9,32.9 59.1,33.5 59.6,33.6 59.7,33.6 
							60.1,33.5 59.7,33.2 59.5,33.3 58.9,32.6 						"/>
						<polygon points="44.9,28.3 44.9,28.8 45.2,28.7 						"/>
						<polygon points="44.9,29.1 44.9,29.2 57.9,33.4 57.9,33.2 58.1,33.1 						"/>
						<polygon class="st0" points="57.9,33.4 44.9,29.2 45,42.8 65.7,57.6 						"/>
						<polygon points="45,42.8 45,43.4 45,43.4 45.5,44.4 65.2,58.6 65.9,58.5 65.7,57.6 						"/>
						<polygon class="st1" points="53.5,16.3 45.3,28.1 59,32.3 80.5,16 						"/>
						<polygon class="st2" points="65.2,58.6 45.5,44.4 52.3,59.7 						"/>
						<polygon points="53.3,15.2 53.3,16.3 53.5,16.3 53.8,15.8 54.8,15.2 						"/>
						<polygon points="53.8,15.8 53.5,16.3 80.5,16 81.6,15.2 81.7,14.4 71.7,5.8 70.3,5.9 70.3,6 80.7,14.9 54.8,15.2 						"/>
						<polygon class="st3" points="54.8,15.2 80.7,14.9 70.3,6 70.3,5.9 70.3,5.9 						"/>
						<polygon points="57.9,33.2 57.9,33.4 58.5,33.5 59.4,34.3 59.1,33.5 58.1,33.1 						"/>
						<polygon points="57.9,33.4 65.7,57.6 66.4,58.2 66.7,57.5 59.4,34.3 58.5,33.5 						"/>
						<polygon points="58.1,33.1 59.1,33.5 58.9,32.9 						"/>
						<polygon points="58.8,32.5 58.9,32.6 59.1,32.6 59.7,33.2 60.7,32.4 59.7,32.5 59,32.3 						"/>
						<polygon points="58.9,32.6 59.5,33.3 59.7,33.2 59.1,32.6 						"/>
						<polygon points="59,32.3 59.7,32.5 60.7,32.4 81.3,16.7 81.4,16 80.5,16 						"/>
						<polygon points="59.6,33.6 59.1,33.5 59.4,34.3 71.8,45.6 66.7,57.5 67.2,58.8 67.3,58.9 73.1,45.3 60.1,33.5 59.7,33.6 
													"/>
						<polygon class="st4" points="71.8,45.6 59.4,34.3 66.7,57.5 						"/>
						<polygon points="60.7,32.4 59.7,33.2 60.1,33.5 79.3,31.2 82.5,15.9 82.4,15.9 81.3,16.7 78.4,30.2 						"/>
						<polygon class="st5" points="60.7,32.4 78.4,30.2 81.3,16.7 						"/>
						<polygon points="65.2,58.6 66.3,59.4 66.7,59 66.2,59.2 65.9,58.5 						"/>
						<polygon points="66.4,58.2 65.7,57.6 65.9,58.5 66.3,58.5 						"/>
						<polygon points="65.9,58.5 66.2,59.2 66.7,59 67,58.6 66.4,58.2 66.3,58.5 						"/>
						<polygon points="66.7,57.5 66.4,58.2 67,58.6 66.7,59 67.2,58.8 						"/>
						<polygon points="71,5.1 70.3,5.9 71.7,5.8 						"/>
						<polygon class="st5" points="71.7,5.8 81.7,14.4 83.7,4.3 						"/>
						<polygon points="80.5,16 81.4,16 81.6,15.4 81.6,15.2 						"/>
						<polygon points="81.3,16.7 82.4,15.9 82.1,15.5 82.1,16 81.4,16 						"/>
						<polygon points="81.6,15.4 81.4,16 82.1,16 82.1,15.5 81.8,15 81.6,15.2 						"/>
						<polygon points="81.7,14.4 81.6,15.2 81.8,15 82.1,15.5 82.1,15.2 82.1,14.7 						"/>
					</g>
				</g>
			</g>
		</g>
	</g>
	<g>
		<g>
			<path class="st6" d="M92.6,13.3h18.5v1.2H93.9v11.3h15.6v1.2H93.9v11.5h17.4v1.2H92.6V13.3z"/>
			<path class="st6" d="M115.9,26.9L115.9,26.9c0-7.2,5.2-13.6,13.1-13.6c8,0,13.1,6.4,13.1,13.6v0.1c0,7.2-5.2,13.6-13.1,13.6
				C121,40.4,115.9,34.1,115.9,26.9z M140.8,26.9L140.8,26.9c0-6.7-4.8-12.5-11.8-12.5c-7,0-11.8,5.7-11.8,12.4v0.1
				c0,6.6,4.8,12.4,11.9,12.4C136.1,39.3,140.8,33.6,140.8,26.9z"/>
			<path class="st6" d="M146.9,36.1l0.9-0.9c2.8,2.6,5.9,4,9.7,4c4.5,0,7.5-2.5,7.5-5.8v-0.1c0-3.1-1.8-4.7-8.1-6
				c-6.4-1.3-8.9-3.3-8.9-7.1V20c0-3.8,3.6-6.8,8.5-6.8c3.6,0,6.5,1.1,8.9,3.1l-0.8,1c-2.4-1.9-5.1-2.9-8.2-2.9
				c-4.3,0-7.2,2.6-7.2,5.5V20c0,3,1.8,4.7,8.2,6c6.5,1.3,8.9,3.4,8.9,7.1v0.1c0,4.1-3.5,7.1-8.9,7.1
				C153.3,40.3,149.9,38.8,146.9,36.1z"/>
		</g>
		<g>
			<path class="st6" d="M92.8,48.7L92.8,48.7c0-2.9,2.1-5.2,5.1-5.2c1.8,0,2.9,0.6,3.9,1.6l-0.8,0.8c-0.8-0.8-1.8-1.4-3.2-1.4
				c-2.2,0-3.9,1.8-3.9,4.1v0c0,2.3,1.7,4.1,3.9,4.1c1.4,0,2.3-0.5,3.2-1.4l0.7,0.7c-1,1.1-2.2,1.6-4,1.6
				C94.9,53.7,92.8,51.6,92.8,48.7z"/>
			<path class="st6" d="M103,50.1L103,50.1c0-2.1,1.6-3.9,3.9-3.9c2.2,0,3.9,1.7,3.9,3.8v0c0,2.1-1.6,3.7-3.9,3.7
				C104.6,53.7,103,52.1,103,50.1z M109.6,50.1L109.6,50.1c0-1.6-1.2-2.9-2.8-2.9c-1.6,0-2.7,1.3-2.7,2.9v0c0,1.6,1.2,2.9,2.7,2.9
				C108.5,52.9,109.6,51.6,109.6,50.1z"/>
			<path class="st6" d="M112.1,52.8l0.6-0.8c0.8,0.6,1.7,0.9,2.6,0.9c0.9,0,1.5-0.5,1.5-1.2v0c0-0.7-0.9-1-1.9-1.3
				c-1.2-0.3-2.5-0.7-2.5-2.1v0c0-1.3,1.1-2.1,2.5-2.1c0.9,0,1.9,0.3,2.7,0.8l-0.5,0.8c-0.7-0.4-1.5-0.7-2.2-0.7
				c-0.9,0-1.4,0.5-1.4,1.1v0c0,0.7,0.9,1,1.9,1.3c1.1,0.3,2.4,0.8,2.4,2.1v0c0,1.4-1.2,2-2.6,2C114.1,53.7,112.9,53.5,112.1,52.8z"
				/>
			<path class="st6" d="M120.1,51.8v-4.5h-1v-1h1v-2.2h1.1v2.2h2.4v1h-2.4v4.3c0,0.9,0.5,1.2,1.2,1.2c0.4,0,0.7-0.1,1.1-0.3v0.9
				c-0.4,0.2-0.8,0.1-1.3,0.1C121,53.6,120.1,53.3,120.1,51.8z"/>
			<path class="st6" d="M125,51.6L125,51.6c0-1.6,1.3-2.4,3.2-2.4c0.9,0,1.6,0.1,2.3,0.3v-0.3c0-1.3-0.8-2-2.2-2
				c-0.9,0-1.6,0.2-2.3,0.5l-0.3-0.9c0.8-0.4,1.6-0.6,2.7-0.6c1,0,1.9,0.3,2.4,0.8c0.5,0.5,0.8,1.2,0.8,2.2v4.5h-1.1v-1.1
				c-0.5,0.7-1.4,1.1-2.7,1.1C126.4,53.7,125,53.1,125,51.6z M130.4,51v-0.7c-0.5-0.2-1.3-0.3-2.2-0.3c-1.4,0-2.2,0.6-2.2,1.5v0
				c0,0.9,0.9,1.5,1.9,1.5C129.3,53,130.4,52.2,130.4,51z"/>
			<path class="st6" d="M138.3,43.7h4.3c1.2,0,2.2,0.4,2.9,1c0.5,0.5,0.8,1.2,0.8,2v0c0,1.7-1.1,2.6-2.7,2.9l3.1,4.1h-1.4l-2.9-3.9
				h-2.9v3.9h-1.1V43.7z M142.5,48.8c1.5,0,2.6-0.8,2.6-2.1v0c0-1.2-0.9-2-2.6-2h-3.1v4.1H142.5z"/>
			<path class="st6" d="M148.5,43.5h1.3v1.2h-1.3V43.5z M148.6,46.3h1.1v7.4h-1.1V46.3z"/>
			<path class="st6" d="M151.8,50.1L151.8,50.1c0-2.1,1.6-3.9,3.8-3.9c1.4,0,2.3,0.6,3,1.3l-0.7,0.8c-0.6-0.6-1.2-1.1-2.3-1.1
				c-1.5,0-2.7,1.3-2.7,2.9v0c0,1.6,1.2,2.9,2.7,2.9c0.9,0,1.7-0.5,2.3-1.1l0.7,0.7c-0.7,0.8-1.6,1.2-3,1.2
				C153.5,53.7,151.8,52.1,151.8,50.1z"/>
			<path class="st6" d="M159.9,51.6L159.9,51.6c0-1.6,1.3-2.4,3.2-2.4c0.9,0,1.6,0.1,2.3,0.3v-0.3c0-1.3-0.8-2-2.2-2
				c-0.9,0-1.6,0.2-2.3,0.5l-0.3-0.9c0.8-0.4,1.6-0.6,2.7-0.6c1,0,1.9,0.3,2.4,0.8c0.5,0.5,0.8,1.2,0.8,2.2v4.5h-1.1v-1.1
				c-0.5,0.7-1.4,1.1-2.7,1.1C161.3,53.7,159.9,53.1,159.9,51.6z M165.4,51v-0.7c-0.5-0.2-1.3-0.3-2.2-0.3c-1.4,0-2.2,0.6-2.2,1.5v0
				c0,0.9,0.9,1.5,1.9,1.5C164.3,53,165.4,52.2,165.4,51z"/>
		</g>
	</g>
</g>
</svg>
