<svg xmlns="http://www.w3.org/2000/svg" width="478" height="309" opacity=".82" fill="#fff" xmlns:v="https://vecta.io/nano"><path d="M4.2 220.9h47.3v2.2H6.6v34.8h41.6v2.2H6.6v36.5h44.9v2.2H4.2v-77.9zM64 281.1v-42.3c0-13.9 7.2-18.2 19.2-18.2h20.4c11.9 0 19.2 4.2 19.2 18.2v42.3c0 13.9-7.2 18.2-19.2 18.2H83.2c-12-.1-19.2-4.3-19.2-18.2zm2.4-41.8v41.2c0 12.1 5.2 16.5 16.7 16.5h20.4c11.5 0 16.7-4.3 16.7-16.5v-41.2c0-12.1-5.2-16.5-16.7-16.5H83.2c-11.5 0-16.8 4.4-16.8 16.5zm121.2-16.5h-31c-14.5 0-17.8 3.2-17.8 15.4v4.2c0 5.8 1.3 7.1 8.4 8.6l34.1 6.6c6.3 1.2 10.8 3.6 10.8 11.6V281c0 13.9-5.3 18.4-20.3 18.2-23.6 0-36.5-.2-36.5-.2v-2h36.5c14.5 0 17.8-4.3 17.8-16.5v-10.7c0-5.6-1.7-8.6-8.1-9.8l-34.5-6.5c-6.6-1.2-10.6-2.6-10.6-10.5v-5.3c0-13.9 5.3-17.3 20.3-17l31 .2v1.9zm42 76.1h-8.4v-78h38c12.9 0 20.4 6.2 20.4 19.4v8.6c0 11-4.9 16.7-13.9 18.4l16.6 31.6h-8.9l-16.2-30.5h-27.6v30.5zm41.9-51.8v-5.2c0-9.8-2.9-13.6-13.8-13.6h-28.1V261h28.1c10.9 0 13.8-4.1 13.8-13.9zm67.9 27.6h-36.2l-8.2 24.2h-9.5l26.3-76.4c.3-1 .6-1.6 2.3-1.6h14.4c1.8 0 2 .6 2.3 1.6.4 1.6 26.3 76.4 26.3 76.4h-9.5l-8.2-24.2zm-34.1-7.2h31.9L323.9 228h-5.2l-13.4 39.5zm106.3-39.3h-25.8v70.7h-8.4v-70.7h-25.8V221h60v7.2zm10-7.3h51.2v7.4H430v27.1h38.8v7.6H430v28.3h42.9v7.7h-51.2v-78.1zm-143-149.7c.1 0 .2 0 .3-.1-.2-.1-.3 0-.3.1zm-14.3 49.5c-.2-.1-.4-.3-.7-.4 0 .1 0 .1.1.2.1.3.2.4.5.4h.3c0-.1-.1-.1-.2-.2zm-51-.2c-.1.1-.2.1-.3.2s-.2.1-.2.2h.1c.2 0 .3-.1.4-.4z"/><path d="M328.3 110.6l-16.1-21.3c-.4-.5-.9-.7-1.4-1l-17-9.2-14.9-8.1h-.1l.1-.1 15.2-33c.2-.5.6-1 .6-1.6l.2-26.6V5.9c-.1 0-.2.1-.3.1l-28.2 8.7c-.7.2-1.4.5-1.9 1.1l-.2.2-25.8 22.7-26-22.9c-.5-.6-1.2-.8-2-1.1L182.4 6c-.1 0-.2-.1-.3-.1v3.8l.2 26.6c0 .6.3 1.1.6 1.6l15.2 33 .1.1-14.9 8.1-17 9.2c-.5.3-1.1.5-1.4 1l-16.1 21.3-2.3 3c.2.1.2.1.3.1l27.8 9.8c.7.2 1.4.4 2.2.3h.3l18.7-1.6 16.9-1.4.1.3 3.5 16.7 3.9 18.3c0 .1.1.2.1.3.1.8.4 1.4.9 2l17.3 23.7c.1.1.1.1.2.3l2.2-3.1 15.7-21.4c.4-.5.4-1.1.5-1.6l7.5-35.3v-.2l16.7 1.4 18.7 1.6h.3c.8.2 1.5-.1 2.2-.3l27.8-9.8c.1 0 .2-.1.3-.1l-2.3-3zm-49.4-34.9c.2-.2.3-.3.6-.1l7.4 4 17.6 9.4v.1l-41.7 1.3c.2-.2.3-.2.4-.3l6.7-6.1 9-8.3zm6.9-28.3c-1.8 4-3.7 7.9-5.6 11.9l-3.6 7.7c-.1.2-.3.2-.5.2L263.7 66l-8.9-.9c-.1 0-.3 0-.5-.1l34.3-23.8.1.1-2.9 6.1zm-17.6-28.8c.1-.3.2-.4.6-.6l22.1-6.8c.1 0 .2-.1.3-.1v.4l-.2 23.2a.55.55 0 0 1-.3.5l-35.9 25c-.1.1-.2.1-.3.2l-.1-.1c.5-1.6 1.1-3.2 1.6-4.8l12.2-36.9zm-26.4 22.3l10.9-9.7 10.1-8.9c.1-.1.1-.1.2-.1h.1l-13 39.7c-.1-.2-.1-.3-.2-.4l-8.2-19.9c-.2-.4-.2-.5.1-.7zm-27.7-18.8c.1.1.2.1.2.1l10.1 8.9 10.9 9.7c.2.2.3.3.2.7l-8.1 19.9c-.1.1-.1.2-.2.4l-13.1-39.7c-.1.1 0 0 0 0zm-28 12.6l-.2-23.6c.1.1.2.1.3.1l22.1 6.8c.3.1.4.3.6.6l12.2 37c.5 1.6 1.1 3.2 1.6 4.8 0 0-.1 0-.1.1-.1-.1-.2-.2-.3-.2l-35.9-25c-.2-.2-.3-.4-.3-.6zm10.6 24.7l-5.5-11.9-2.9-6.1.1-.1 34.3 23.8c-.2 0-.4.1-.5.1l-9 .9-12.4 1.2c-.2 0-.4 0-.5-.2l-3.6-7.7zm-18.2 26.5l11.6-6.2c2.5-1.3 5-2.7 7.4-4 .2-.2.4-.1.5.1l9.2 8.4 6.7 6.1a1.38 1.38 0 0 0 .4.3l-41.7-1.3v-.1c2-1.2 3.9-2.2 5.9-3.3zm-3.1 33.7c-.3.2-.4.2-.8.1l-21.8-7.7c-.1 0-.2-.1-.3-.1.1-.1.2-.2.2-.3l14-18.4c.1-.2.3-.3.6-.3l44.1 1.4v.1c-1.4 1-2.7 2-4.1 2.9l-31.9 22.3zm35-2.6c-.1.3-.2.4-.5.4l-14.5 1.2-13.4 1.2h-.2v-.1l34.1-24c-.1.2-.1.3-.1.4l-5.4 20.9zm12.3 33.6c0-.1-.1-.1-.1-.2l-2.7-13.1-3-14.2c-.1-.3 0-.4.3-.6l18.4-11.1c.1-.1.2-.1.4-.2l-13.3 39.4zm29.8 6.7l-13.6 18.6c-.1.1-.2.2-.2.3-.1-.1-.2-.2-.2-.3l-13.6-18.6c-.2-.2-.2-.4-.1-.8l12.3-36.8c.5-1.6 1.1-3.2 1.6-4.8h.1c0 .1.1.2.1.3l13.8 41.3c0 .4 0 .6-.2.8zm7.9-34.4c-.6 2.7-1.2 5.5-1.7 8.3L256 144c-.4 2.2-.9 4.4-1.4 6.6h-.1l-13.2-39.5a1.38 1.38 0 0 1 .4.3c2.6 1.5 5.1 3.1 7.7 4.6l10.6 6.4c.3.2.4.3.4.5zm-9.1-10l-12.3-7.4c-.2-.1-.4-.2-.7 0l-25 15.1 7.4-28.7c.1-.3 0-.4-.2-.6l-10.7-9.7-11.4-10.4 29.5-2.9c.3 0 .4-.1.6-.4l9.9-24.3 9.9 24.3c.1.3.3.4.6.4l29.6 2.9-.1.1-11.3 10.3-10.7 9.7c-.2.2-.3.3-.2.6l7.3 28.5-12.2-7.5zm12.9 8h0zm31-1h-.2l-13.4-1.2-14.5-1.2c-.3 0-.4-.1-.5-.4l-5.3-20.8c0-.1-.1-.2-.1-.4l34 24c.1-.1.1-.1 0 0zm28.9-7.9l-21.8 7.7a.78.78 0 0 1-.8-.1l-31.9-22.4c-1.4-1-2.8-1.9-4.1-2.9v-.1h.4l43.7-1.4c.2 0 .4.1.6.3l14 18.4c.1.1.1.2.2.3-.1.1-.2.1-.3.2z"/></svg>