<svg xmlns="http://www.w3.org/2000/svg" width="702" height="200" xmlns:v="https://vecta.io/nano"><path d="M265.8 125.8h-49.7V45.3h49.7v4.4h-45.1v32.7h41.7v4.4h-41.7v34.5h45.1v4.5zm-47.5-2.2l45.4-.1h-45.1V84.7l41.7-.1h-41.7v-37l45.1-.1h-45.4v76.1zm98.7 2.5h-20.5c-14 0-20.3-6-20.3-19.3V64.3c0-13.4 6.3-19.3 20.3-19.3H317c14 0 20.3 6 20.3 19.3v42.5c0 13.3-6.3 19.3-20.3 19.3zm-20.5-78.9c-12.7 0-18.1 5.1-18.1 17.1v42.5c0 12 5.4 17.1 18.1 17.1H317c12.7 0 18.1-5.1 18.1-17.1V64.3c0-12-5.4-17.1-18.1-17.1h-20.5zm20.5 76.7h-20.5c-12.5 0-17.9-5.3-17.9-17.6V64.9c0-12.4 5.3-17.6 17.9-17.6H317c12.5 0 17.9 5.3 17.9 17.6v41.4c-.1 12.3-5.4 17.6-17.9 17.6zm-20.5-74.5c-11.3 0-15.7 4.3-15.7 15.5v41.4c0 11.1 4.4 15.5 15.7 15.5H317c11.3 0 15.7-4.3 15.7-15.5V64.9c0-11.1-4.4-15.5-15.7-15.5h-20.5zm89.9 76.6h-1c-23.4 0-36.5-.2-36.7-.2h-1.1v-4.2h37.8c14.3 0 16.8-4.1 16.8-15.5V95.4c0-4.9-1.1-7.6-7.3-8.8l-34.7-6.5c-6.7-1.3-11.5-2.8-11.5-11.6v-5.4c0-6.9 1.3-11.2 4.1-14 3.2-3.1 8.2-4.4 17.3-4.2l32.1.2v4.1H370c-13.8 0-16.8 2.5-16.8 14.3V68c0 5 .6 6.1 7.5 7.5h0l34.2 6.6c6.1 1.2 11.7 3.5 11.7 12.7v11.9c0 7.1-1.4 11.8-4.5 14.8-2.9 3.1-7.8 4.5-15.7 4.5zm-23.1-2.2l22.1.1c7.9.1 12.6-1.1 15.5-3.9 2.6-2.6 3.8-6.8 3.8-13.3V94.8c0-7.2-3.7-9.3-10-10.6l-34.2-6.6c-7.1-1.5-9.3-3-9.3-9.7v-4.2c0-13 4.1-16.5 19-16.5h20.2c-4.8 0-11.4-.1-20.2-.1-8.4-.1-13.1 1-15.8 3.6-2.4 2.4-3.5 6.2-3.5 12.4v5.4c0 6.9 3 8.2 9.7 9.4l34.7 6.5c7.5 1.4 9 5.4 9 10.9V106c0 13.5-4.4 17.6-19 17.6h-22z" opacity=".82" fill="#443f5b"/><g opacity=".82" fill="#443f5b"><path d="M443.5 124.7h-8.4V46.4h38.1c13 0 20.5 6.3 20.5 19.5v8.6c0 11.1-4.9 16.8-14 18.4l16.7 31.8h-8.9L471.2 94h-27.7v30.7zm42-52v-5.3c0-9.8-2.9-13.6-13.9-13.6h-28.2v32.9h28.2c11 0 13.9-4.2 13.9-14z"/><path d="M498.2 125.8h-11.4l-16.2-30.6h-26v30.6H434V45.3h39.2c14.1 0 21.5 7.1 21.5 20.5v8.6c0 10.6-4.5 17-13.4 19.2l16.9 32.2zm-10.1-2.2h6.5l-16.5-31.5 1.4-.3c8.9-1.7 13.1-7.2 13.1-17.4v-8.6c0-12.2-6.5-18.4-19.4-18.4h-37v76.1h6.2V93h29.5l16.2 30.6zm-16.4-35.8h-29.3v-35h29.3c11 0 14.9 3.9 14.9 14.7v5.3c0 10.9-4 15-14.9 15zm-27.1-2.2h27.1c9.8 0 12.8-3 12.8-12.9v-5.3c0-9.7-2.9-12.6-12.8-12.6h-27.1v30.8zm109 14.8h-36.3l-8.3 24.3h-9.5L525.9 48c.3-1 .6-1.6 2.3-1.6h14.4c1.8 0 2 .6 2.3 1.6.4 1.6 26.4 76.7 26.4 76.7h-9.5l-8.2-24.3zm-34.2-7.2h32l-13.3-39.7h-5.3l-13.4 39.7z"/><path d="M572.9 125.8h-11.8l-8.3-24.3H518l-8.3 24.3H498l.5-1.4 26.4-76.6c.4-1.3 1-2.3 3.4-2.3h14.4c2.4 0 3 1 3.4 2.3s17.4 50.7 26.4 76.7l.4 1.3zm-10.2-2.2h7.2L544 48.3c-.3-.8-.3-.8-1.3-.8h-14.4c-1 0-1.1 0-1.3.8-.4 1.4-22.2 64.6-25.9 75.3h7.2l8.3-24.3h37.9l8.2 24.3zm-9.8-29.4h-35l14.2-41.9h6.8l14 41.9zm-32-2.1h29l-12.6-37.5h-3.7l-12.7 37.5zm105.2-38.4h-25.9v71h-8.4v-71h-25.9v-7.3h60.3v7.3z"/><path d="M601.2 125.8h-10.5v-71h-25.9v-9.4h62.4v9.4h-25.9v71zm-8.3-2.2h6.2v-71H625v-5.1h-58.1v5.1h25.9v71zm43.3-77.2h51.4v7.4h-43V81h38.9v7.6h-38.9V117h43v7.7h-51.4V46.4z"/><path d="M688.7 125.8h-53.6V45.3h53.6v9.5h-43v25h38.9v9.8h-38.9v26.2h43v10zm-51.4-2.2h49.3V118h-43V87.5h38.9V82h-38.9V52.7h43v-5.2h-49.3v76.1z"/></g><g fill="#443f5b"><path d="M145.9 76.8c.1 0 .2 0 .3-.1-.1 0-.2 0-.3.1zm-14.3 49.7c-.2-.1-.5-.3-.7-.4 0 .1 0 .1.1.2.1.3.2.4.5.4h.3c0-.1-.1-.1-.2-.2zm-51.2-.2c-.1.1-.2.1-.3.2s-.2.1-.2.2h.1c.3 0 .4-.1.4-.4z"/><path d="M195.8 116.4l-16.1-21.3c-.4-.5-.9-.7-1.4-1l-17-9.2-14.9-8.1h-.1l.1-.1 7.2-15.4 8.2-17.6c.2-.5.6-1 .6-1.6l.2-26.7v-3.8c-.1 0-.2.1-.3.1L134 20.4c-.7.2-1.4.5-1.9 1.1l-.2.2-25.8 22.9-11.8-10.4-14.1-12.5-.2-.2c-.5-.6-1.2-.8-2-1.1l-28.2-8.7c-.1 0-.2-.1-.3-.1v3.8l.2 26.7c0 .6.3 1.1.6 1.6l8.2 17.6 7.1 15.4.1.2-15 8.1-17.1 9.2c-.5.3-1.1.5-1.4 1l-16.1 21.3-2.3 3c.2.1.2.1.3.1l27.9 9.9c.7.2 1.4.5 2.2.3h.3l18.8-1.6 17-1.4.1.3 3.5 16.8 3.9 18.4c0 .1.1.2.1.3.1.8.5 1.4.9 2l17.4 23.8c.1.1.1.1.2.3l2.3-3.1 15.8-21.5c.4-.5.4-1.1.5-1.6l4-18.9 3.5-16.6v-.2l35.8 3c.8.2 1.5-.1 2.2-.3l27.9-9.9c.1 0 .2-.1.3-.1-1.4-1.1-2.1-2.1-2.9-3.1zm-49.5-35c.2-.2.3-.3.6-.1l7.5 4 11.6 6.3 6 3.2v.1l-41.9 1.4c.2-.2.3-.2.4-.3l6.7-6.1c2.9-2.9 6-5.7 9.1-8.5zm6.9-28.4l-5.6 11.9-3.6 7.7c-.1.2-.3.2-.5.2L131 71.6l-9-.9c-.1 0-.3 0-.5-.1l34.4-23.9.1.1c-.9 2.1-1.9 4.1-2.8 6.2zm-17.7-29c.1-.3.2-.5.6-.6l22.1-6.8c.1 0 .2-.1.3-.1v.4l-.2 23.2a.55.55 0 0 1-.3.5l-36 25.1c-.1.1-.2.1-.3.2l-.1-.1c.5-1.6 1.1-3.2 1.6-4.8l12.3-37zM109 46.4l10.9-9.7 10.1-9c.1-.1.1-.1.2-.1h.1l-13.1 39.8c-.1-.2-.1-.3-.2-.4l-8.2-20c-.1-.3 0-.4.2-.6zM81.2 27.6c.1.1.2.1.2.1l21 18.7c.2.2.3.3.2.7l-8.2 20c-.1.1-.1.2-.2.4l-13-39.9zM53.1 40.1l-.2-23.6c.1.1.2.1.3.1l22.2 6.8a.9.9 0 0 1 .6.6l12.2 37.1c.5 1.6 1.1 3.2 1.6 4.8 0 0-.1 0-.1.1-.1-.1-.2-.2-.3-.2l-36-25.1c-.2-.2-.3-.3-.3-.6zm10.7 24.8L58.2 53l-2.9-6.1.1-.1 34.4 23.9c-.2 0-.4.1-.5.1l-9 .9-12.4 1.2c-.2 0-.4 0-.5-.2l-3.6-7.8zM45.5 91.5l11.6-6.3c2.5-1.4 5-2.7 7.5-4 .2-.2.4-.1.5.1l9.2 8.4 6.7 6.1a1.38 1.38 0 0 0 .4.3l-41.9-1.4v-.1c2.1-.9 4-2 6-3.1zm-3.1 33.9a.78.78 0 0 1-.8.1l-21.9-7.8c-.1 0-.2-.1-.3-.1.1-.1.2-.2.2-.3l14-18.5c.1-.2.3-.3.6-.3l44.2 1.4v.1l-4.1 2.9-31.9 22.5zm35.2-2.6c-.1.3-.2.4-.5.5l-14.6 1.2-13.5 1.2h-.2v-.1l34.3-24.1c-.1.2-.1.3-.1.5-1.9 6.8-3.7 13.8-5.4 20.8zm12.2 33.7c0-.1-.1-.1-.1-.2L87 143.1l-3-14.3c-.1-.3 0-.5.3-.6l18.4-11.1c.1-.1.2-.1.4-.2l-13.3 39.6zm30 6.7l-13.7 18.7c-.1.1-.2.2-.2.3-.1-.1-.2-.2-.2-.3l-13.6-18.7c-.2-.2-.2-.5-.1-.8l12.3-36.9c.5-1.6 1.1-3.2 1.6-4.8h.1c0 .1.1.2.1.3l13.9 41.5c0 .3-.1.5-.2.7zm7.9-34.5L126 137l-4.1 19.4h-.1l-13.2-39.6a1.38 1.38 0 0 1 .4.3c2.6 1.5 5.2 3.1 7.7 4.6l10.7 6.4c.2.3.3.4.3.6zm-9.2-10.1l-12.3-7.4c-.2-.1-.4-.2-.7 0l-25.1 15.1 7.4-28.8c.1-.3 0-.5-.2-.6l-10.7-9.7-11.4-10.4 29.6-2.9c.3 0 .4-.1.6-.4l10-24.4 9.9 24.4c.1.3.3.4.6.4l29.7 2.9-.1.1-11.3 10.3-10.7 9.7c-.2.2-.3.3-.2.6l7.4 28.6-12.5-7.5zm13 8.1h0zm31.2-1.1h-.2l-13.5-1.2-14.5-1.2c-.3 0-.5-.1-.5-.5l-5.4-20.9c0-.1-.1-.2-.1-.5l34.2 24.3zm28.9-7.9l-21.9 7.8a.78.78 0 0 1-.8-.1l-32-22.5c-1.4-1-2.8-1.9-4.2-2.9v-.1h.4l43.8-1.4c.2 0 .4.1.6.3l14 18.5c.1.1.1.2.2.3.1 0 .1.1-.1.1z" opacity=".87"/></g></svg>