<svg height="256" viewBox="0 0 256 256" width="256" xmlns="http://www.w3.org/2000/svg"><path d="m10.7177033 128c0 64.948712 52.5611811 117.509893 117.2822967 117.509893 64.721116 0 117.282297-52.561181 117.282297-117.509893 0-64.9487116-52.561181-117.5098927-117.282297-117.5098927-64.7211156 0-117.2822967 52.5611811-117.2822967 117.5098927zm-10.7177033 0c0-70.6924402 57.3075598-128 128-128 70.69244 0 128 57.3075598 128 128 0 70.69244-57.30756 128-128 128-70.6924402 0-128-57.30756-128-128zm123.304311 71c-3.927079 0-7.203394-.445469-9.735977-1.322533-2.553576-.886313-4.570346-1.868193-5.991832-2.92252-1.703384-1.260877-2.457611-2.20268-2.79199-2.769921-.401854-.682846-.57879-1.051244-.650764-1.219258.032988-.849319.241412-1.781874.619276-2.777627.454335-1.194596 1.025628-2.312121 1.700384-3.323288.667259-.995754 1.384-1.837366 2.135228-2.497091.557798-.491711.874183-.618106.979145-.648935.010497.04316.142449.197301.314886.551826l.154445.317532 1.217559 1.253169c.647766.668973 1.502456 1.317909 2.609056 1.982258 1.058617.639687 2.370642 1.222341 3.898589 1.732549 1.589425.533329 3.45475.804618 5.541995.804618 4.61533 0 8.464437-1.496713 11.44236-4.443896 3.001913-2.968763 4.523863-6.994935 4.523863-11.970619 0-3.434269-.800711-6.557173-2.381139-9.276227-1.494959-2.569537-3.471244-4.983391-5.876373-7.17374-2.333156-2.120985-5.014186-4.204976-7.971116-6.198024-2.887955-1.945264-5.837388-3.972223-8.849798-6.082418-2.952432-2.063953-5.888369-4.32829-8.726842-6.728271-2.742508-2.315204-5.213614-5.01576-7.348841-8.027683-2.1202328-2.98726-3.8596035-6.419988-5.1656309-10.201076-1.2940317-3.744093-1.9507941-8.118626-1.9507941-13.001824 0-4.171066.7092434-8.4392401 2.1067377-12.6858349 1.4139884-4.2974614 3.3947716-8.4484884 5.8883693-12.3436409 2.508592-3.9151907 5.509007-7.6299978 8.921772-11.0411463 3.406767-3.4065242 7.146414-6.4107395 11.116977-8.9324923 3.95257-2.5078801 8.130058-4.5024694 12.418507-5.9282771 4.234467-1.4103935 8.540909-2.1256095 12.800868-2.1256095 3.567209 0 6.807536.5826544 9.632514 1.7294662 2.779994 1.132939 5.153635 2.7406335 7.051949 4.7799238 1.908809 2.0516217 3.409766 4.5672088 4.459386 7.4743151 1.063115 2.9471829 1.60292 6.3090062 1.60292 9.9945264 0 3.4943848-.605781 6.9779798-1.800848 10.3552172-1.225057 3.4604737-2.866963 6.7714303-4.877735 9.8388436-2.037763 3.1105728-4.369419 6.0207617-6.928993 8.6534967-2.57157 2.643524-5.236106 4.963352-7.917135 6.896285-2.652541 1.912894-5.258598 3.421938-7.746198 4.480889-2.360146 1.006543-4.4204 1.518293-6.122284 1.518293-1.364507 0-2.540081-.308283-3.5942-.938721-1.145585-.684388-2.106737-1.532165-2.862464-2.526377-.797711-1.04662-1.424485-2.159521-1.859327-3.309415-.352373-.921766-.554799-1.740256-.610279-2.443141.064476.015414.131952.03237.200927.049325.80221.208091 1.727375.312907 2.739509.312907 3.070888 0 6.450666-1.066658 10.047864-3.167605 3.438256-2.010004 6.710072-4.604203 9.725481-7.7055271 3.019907-3.1013244 5.589977-6.5679638 7.644234-10.3012678 2.138226-3.8951524 3.222334-7.768725 3.222334-11.5143603 0-3.9691402-1.000138-7.1906949-2.976423-9.5783447-2.061754-2.4940073-5.425037-3.759508-9.996883-3.759508-2.657038 0-5.561487.5209978-8.633876 1.5491208-2.992917 1.0034603-6.038315 2.4184781-9.052224 4.2080594-3.006412 1.7880399-5.948348 3.9768473-8.744836 6.50939-2.812982 2.5464154-5.326073 5.3918651-7.471796 8.457737-2.159219 3.0874516-3.922581 6.464689-5.237605 10.037686-1.342015 3.6469848-2.022768 7.4989777-2.022768 11.4557867 0 4.211142.764723 8.046179 2.274677 11.401837 1.473966 3.278587 3.45475 6.296675 5.88687 8.971028 2.361645 2.601906 5.086159 5.038881 8.09707 7.24002 2.887955 2.111737 5.892867 4.245053 8.930768 6.338293 2.988419 2.057787 5.946848 4.206518 8.794318 6.386077 2.7635 2.116361 5.264595 4.479348 7.437309 7.025764 2.124731 2.492465 3.856604 5.305545 5.146138 8.35292 1.258045 2.978012 1.895314 6.469314 1.895314 10.37988 0 3.781088-.706245 7.412659-2.096242 10.79452-1.395994 3.389569-3.337792 6.372204-5.765413 8.870836-2.43212 2.498632-5.354563 4.511718-8.687857 5.979144-3.3168 1.46126-6.927493 2.20268-10.733116 2.20268z" fill="#fff"/></svg>